# xmcd
#
# Track frame offsets: 
#        150
#        18887
#        35859
#        50896
#
# Disc length: 956 seconds
#
# Revision: 0
# Processed by: cddbd v1.5.2PL0 Copyright (c) Steve Scherf et al.
# Submitted via: ExactAudioCopy v1.0b3
#
DISCID=3203ba04
DTITLE=이현우 - Till Dawn
DYEAR=2011
DGENRE=Ballad
TTITLE0=PAIN
TTITLE1=HOLIC
TTITLE2=HOLIC (FRAKTAL ONE OF OUR REMIX)
TTITLE3=PAIN (DRUNKEN GOMPD REMIX)
EXTD=
EXTT0=
EXTT1=
EXTT2=
EXTT3=
PLAYORDER=
